<?xml version="1.0" encoding="UTF-8" standalone="no"?>
<!-- Created with Inkscape (http://www.inkscape.org/) -->

<svg
   xmlns:dc="http://purl.org/dc/elements/1.1/"
   xmlns:cc="http://creativecommons.org/ns#"
   xmlns:rdf="http://www.w3.org/1999/02/22-rdf-syntax-ns#"
   xmlns:svg="http://www.w3.org/2000/svg"
   xmlns="http://www.w3.org/2000/svg"
   xmlns:xlink="http://www.w3.org/1999/xlink"
   xmlns:sodipodi="http://sodipodi.sourceforge.net/DTD/sodipodi-0.dtd"
   xmlns:inkscape="http://www.inkscape.org/namespaces/inkscape"
   version="1.0"
   width="251"
   height="304.20001"
   id="svg4166"
   inkscape:version="0.48.4 r9939"
   sodipodi:docname="Spec.svg">
  <sodipodi:namedview
     pagecolor="#ffffff"
     bordercolor="#666666"
     borderopacity="1"
     objecttolerance="10"
     gridtolerance="10"
     guidetolerance="10"
     inkscape:pageopacity="0"
     inkscape:pageshadow="2"
     inkscape:window-width="1280"
     inkscape:window-height="752"
     id="namedview16"
     showgrid="false"
     showguides="true"
     inkscape:guide-bbox="true"
     inkscape:zoom="0.77580536"
     inkscape:cx="-183.85594"
     inkscape:cy="152.10001"
     inkscape:window-x="0"
     inkscape:window-y="0"
     inkscape:window-maximized="1"
     inkscape:current-layer="svg4166" />
  <defs
     id="defs4168" />
  <metadata
     id="metadata1880">
    <rdf:RDF>
      <cc:Work
         rdf:about="">
        <dc:title />
        <dc:date>2010-02-08</dc:date>
        <dc:creator>
          <cc:Agent>
            <dc:title>Lokal_Profil</dc:title>
          </cc:Agent>
        </dc:creator>
        <cc:license
           rdf:resource="http://creativecommons.org/licenses/by-sa/2.5/" />
        <dc:rights>
          <cc:Agent>
            <dc:title>cc-by-sa-2.5</dc:title>
          </cc:Agent>
        </dc:rights>
        <dc:format>image/svg+xml</dc:format>
        <dc:type
           rdf:resource="http://purl.org/dc/dcmitype/StillImage" />
      </cc:Work>
      <cc:License
         rdf:about="http://creativecommons.org/licenses/by-sa/2.5/">
        <cc:permits
           rdf:resource="http://web.resource.org/cc/Reproduction" />
        <cc:permits
           rdf:resource="http://web.resource.org/cc/Distribution" />
        <cc:requires
           rdf:resource="http://web.resource.org/cc/Notice" />
        <cc:requires
           rdf:resource="http://web.resource.org/cc/Attribution" />
        <cc:permits
           rdf:resource="http://web.resource.org/cc/DerivativeWorks" />
        <cc:requires
           rdf:resource="http://web.resource.org/cc/ShareAlike" />
      </cc:License>
    </rdf:RDF>
  </metadata>
  <path
     transform="matrix(-0.54016168,0,0,-0.54016168,226.10946,206.74864)"
     sodipodi:open="true"
     sodipodi:end="7.8539816"
     sodipodi:start="1.7627825"
     d="m 157.11304,251.12332 a 152.74449,152.74449 0 1 1 29.14502,2.80634"
     sodipodi:ry="152.74449"
     sodipodi:rx="152.74449"
     sodipodi:cy="101.18517"
     sodipodi:cx="186.25806"
     id="path3026"
     style="fill:#ffffff;fill-opacity:1;stroke:none"
     sodipodi:type="arc"
     inkscape:export-filename="/Users/benjamin/Pictures/Logos/Spec.png"
     inkscape:export-xdpi="120.3203"
     inkscape:export-ydpi="120.3203" />
  <path
     style="fill:#003d8f;fill-opacity:1;stroke:none"
     d="m 112.07342,246.95865 c -39.836173,-5.97545 -71.45446,-35.5057 -80.672648,-75.3451 -0.820187,-3.5447 -1.510938,-12.53536 -1.535002,-19.97924 -0.143658,-44.43753 29.624498,-81.934101 73.82926,-92.996821 9.2504,-2.31501 13.26847,-2.62625 25.80575,-1.99889 27.042,1.35316 44.75702,9.26009 63.8084,28.48024 13.32015,13.438136 20.73973,26.386021 25.12308,43.842211 8.85878,35.27905 -4.55153,74.83466 -33.04797,97.47974 -20.45745,16.25678 -48.81248,24.19264 -73.31087,20.51786 l 0,0 z m 16.11229,-22.37611 c 0,-2.41482 0.54343,-2.95968 2.4537,-2.46013 4.22231,1.10415 4.85819,-4.34146 0.87299,-7.47622 -2.84621,-2.23883 -3.32669,-3.6272 -3.32669,-9.61263 0,-3.84772 0.45098,-6.99585 1.00217,-6.99585 2.37328,0 6.73173,4.22008 6.73173,6.518 0,2.05156 0.90812,2.50488 5.01802,2.50488 5.98457,0 7.3215,-2.2345 5.19397,-8.68099 -1.24804,-3.78162 -1.90319,-4.3091 -4.53246,-3.64919 -4.24968,1.06661 -12.08716,-4.09299 -12.10849,-7.9713 -0.009,-1.59512 0.54367,-2.90022 1.22767,-2.90022 0.684,0 1.89412,-1.21544 2.68915,-2.70097 1.20239,-2.24669 0.99322,-3.01778 -1.24363,-4.58453 -2.21871,-1.55405 -2.68915,-3.23807 -2.68915,-9.62618 l 0,-7.74262 6.76716,3.62652 c 5.31646,2.84908 6.8546,4.3864 7.17502,7.17122 0.31594,2.74577 1.09066,3.5447 3.43729,3.5447 1.66619,0 3.2505,-0.66322 3.5207,-1.47382 0.366,-1.09801 1.2151,-1.08644 3.32987,0.0453 2.29455,1.22801 2.8386,2.65675 2.8386,7.4544 0,4.16365 -0.6733,6.42854 -2.25572,7.58797 -2.12994,1.5606 -2.10487,1.85599 0.44973,5.29803 1.48799,2.00491 4.12292,3.81722 5.8554,4.02735 2.50076,0.30334 3.59238,-0.54569 5.29661,-4.1195 2.06124,-4.32245 2.04624,-4.53344 -0.37722,-5.30262 -1.86004,-0.59035 -2.52388,-1.9647 -2.52388,-5.22525 l 0,-4.4242 6.45515,3.54433 c 5.5504,3.04756 6.56712,4.2218 7.25415,8.37801 0.43944,2.65853 1.25747,4.83369 1.81782,4.83369 2.51698,0 5.09661,-1.7238 5.09661,-3.40571 0,-1.44778 0.55625,-1.54324 2.60461,-0.44698 4.69054,2.5103 7.45634,-2.38162 2.87357,-5.08256 -1.66481,-0.98118 -1.84634,-1.60095 -0.69296,-2.36589 2.2314,-1.47988 0.54738,-7.08823 -1.85191,-6.16754 -5.9393,2.27912 -8.15588,2.0705 -13.92536,-1.31064 -6.01883,-3.52727 -6.02944,-3.54578 -3.00223,-5.2406 1.67085,-0.93546 4.58282,-1.38901 6.47104,-1.00789 2.77292,0.55969 3.61191,0.12025 4.36292,-2.28518 0.5114,-1.63796 1.43164,-3.30234 2.04498,-3.69862 2.18701,-1.41304 -2.19759,-5.15209 -6.94503,-5.9225 -4.302,-0.69811 -4.82946,-0.48659 -4.82946,1.93671 0,1.89199 -1.62708,3.5505 -5.34304,5.44624 -4.55413,2.32335 -5.83879,2.49258 -8.70064,1.14618 -1.97181,-0.92767 -2.69259,-1.82022 -1.74636,-2.16254 2.02646,-0.73313 1.98142,-1.70548 -0.21296,-4.59811 -1.47053,-1.93844 -2.26047,-2.06042 -5.06579,-0.78223 -2.91742,1.32926 -4.06461,1.03231 -9.38703,-2.42988 l -6.06344,-3.94422 6.30699,-3.99978 c 3.46885,-2.19988 7.04534,-3.69824 7.94777,-3.3297 0.90242,0.36854 2.46635,1.00509 3.47539,1.41454 2.36649,0.96029 5.30061,-4.03262 3.15066,-5.36137 -0.95036,-0.58736 -0.40818,-1.47287 1.54027,-2.51566 4.23412,-2.26602 14.09818,2.39024 14.09818,6.65495 0,2.5203 0.43801,2.75199 3.5447,1.87502 1.94959,-0.55033 4.12929,-0.79835 4.84377,-0.55115 1.79977,0.62269 5.07328,-4.8436 3.50491,-5.85269 -0.67873,-0.43669 -1.64134,-2.09908 -2.13914,-3.6942 -0.99142,-3.17687 -1.73005,-3.45219 -4.52209,-1.68561 -1.20912,0.76504 -3.19076,0.48553 -5.67854,-0.80095 l -3.82131,-1.97606 6.45798,-3.72849 c 5.75134,-3.32051 6.91672,-3.56855 10.65065,-2.2669 3.36387,1.17266 4.41623,1.10861 5.32351,-0.32399 1.76882,-2.79297 1.3681,-5.00804 -0.90596,-5.00804 -1.59838,0 -1.40055,-0.54717 0.85943,-2.3772 3.74197,-3.03006 2.69697,-7.52853 -1.25726,-5.41228 -3.34978,1.79274 -3.97082,1.70063 -3.97082,-0.58891 0,-1.20305 -1.21737,-1.93347 -3.22246,-1.93347 -2.31733,0 -3.22246,0.69448 -3.22246,2.47254 0,4.65518 -1.61644,6.67285 -7.89475,9.8543 l -6.28406,3.18438 0,-3.84331 c 0,-2.55942 0.88561,-4.31728 2.65106,-5.26212 l 2.65107,-1.41881 -2.59893,-4.10472 c -1.42941,-2.2576 -3.20244,-4.04672 -3.94004,-3.97582 -3.87879,0.37279 -4.75613,0.86091 -6.94294,3.86269 -2.18425,2.99825 -2.21067,3.45248 -0.32225,5.53916 1.1718,1.29483 2.05711,4.52322 2.05711,7.50152 0,4.15463 -0.66182,5.66208 -3.22245,7.33988 -2.92316,1.91532 -3.22246,1.92076 -3.22246,0.0586 0,-3.62147 -5.74037,-1.74348 -6.17993,2.02179 -0.27599,2.36407 -2.08587,4.21003 -6.63489,6.76716 -3.44046,1.93397 -6.60492,3.51632 -7.03214,3.51632 -0.42723,0 -0.77677,-3.24227 -0.77677,-7.20504 0,-5.79976 0.53628,-7.63929 2.74956,-9.43149 2.34066,-1.89536 2.52273,-2.65029 1.22431,-5.07641 -0.83889,-1.56747 -2.07619,-2.50944 -2.74956,-2.09328 -0.67337,0.41617 -1.22431,-0.70676 -1.22431,-2.49539 0,-4.47594 8.29008,-10.27281 11.91597,-8.33229 2.91369,1.55936 2.76018,1.68679 4.62674,-3.84053 1.97242,-5.840825 0.28847,-8.599215 -5.48713,-8.988185 -4.05027,-0.27277 -4.61066,0.0523 -4.61066,2.67441 0,1.949635 -1.3412,3.777185 -3.86695,5.269175 l -3.86695,2.28427 0,-7.436105 c 0,-6.484106 0.43372,-7.781936 3.3878,-10.137446 2.59861,-2.07205 3.17494,-3.37204 2.47401,-5.58046 -0.66939,-2.10906 -1.57551,-2.66911 -3.38781,-2.09391 -1.89477,0.60138 -2.474,0.16131 -2.474,-1.8796 0,-1.80551 -0.83132,-2.66483 -2.57797,-2.66483 -1.92261,0 -2.57797,0.85932 -2.57797,3.38028 0,2.95965 -0.25796,3.1662 -2.07296,1.65989 -1.76136,-1.4618 -2.34295,-1.35116 -3.86916,0.73606 -1.59366,2.17945 -1.43257,2.83603 1.42846,5.8223 2.59455,2.70812 3.22468,4.67443 3.22468,10.062466 0,3.683135 -0.32815,6.696625 -0.72923,6.696625 -2.64516,0 -5.71568,-3.13544 -5.71568,-5.836495 0,-2.85836 -0.49269,-3.14852 -5.0433,-2.97021 -3.9302,0.154 -5.34655,0.86318 -6.41728,3.21318 -0.86096,1.889585 -0.90302,3.015555 -0.11264,3.015555 0.69374,0 1.27023,1.01507 1.28109,2.25572 0.0108,1.24065 0.54669,3.08849 1.19074,4.10631 0.94391,1.4917 1.54622,1.53919 3.10577,0.24488 2.97564,-2.46956 12.44053,3.85175 12.44053,8.30864 0,1.80529 -0.55094,2.94186 -1.22431,2.52569 -0.67337,-0.41616 -1.91067,0.52581 -2.74956,2.09328 -1.29842,2.42612 -1.11635,3.18105 1.22432,5.07641 2.21327,1.7922 2.74955,3.63173 2.74955,9.43149 0,3.96277 -0.3093,7.20504 -0.68734,7.20504 -0.37804,0 -3.52876,-1.43985 -7.00159,-3.19967 -4.96824,-2.5176 -6.40166,-3.96016 -6.72431,-6.76716 -0.29436,-2.56091 -1.22837,-3.68371 -3.31028,-3.97939 -1.93608,-0.27497 -2.9002,0.25148 -2.9002,1.58359 0,1.66074 -0.54059,1.74919 -3.222458,0.52725 -2.80926,-1.27999 -3.22246,-2.29123 -3.22246,-7.88641 0,-4.60907 0.63582,-6.89477 2.25572,-8.10904 2.10762,-1.57987 2.03796,-1.8961 -1.06102,-4.81658 -4.39908,-4.14568 -8.928598,-5.61001 -8.928598,-2.88649 0,1.11119 -0.517984,2.02034 -1.151076,2.02034 -2.240577,0 -2.882629,4.42409 -0.857009,5.90526 1.099545,0.80401 2.383175,3.38184 2.852511,5.72852 0.98228,4.9114 0.191491,4.85872 -8.390709,-0.55899 -3.675886,-2.32048 -5.283214,-4.29359 -5.576284,-6.84526 -0.33019,-2.87487 -1.149059,-3.66922 -4.133787,-4.01001 -2.953684,-0.33725 -3.560732,-0.005 -2.940665,1.61122 0.91161,2.37562 0.309088,2.5207 -3.035295,0.73084 -1.928514,-1.03211 -2.723696,-0.77361 -3.798596,1.23486 -1.118929,2.09074 -0.844004,2.81611 1.553675,4.09931 1.791678,0.95888 2.294209,1.7654 1.305369,2.09501 -2.140058,0.71335 -2.062358,5.38351 0.10339,6.21459 0.941156,0.36116 3.301489,0.052 5.245185,-0.68698 2.960364,-1.12552 4.461016,-0.80035 9.245165,2.00335 3.14115,1.84083 5.711177,3.77879 5.711177,4.30657 0,1.79705 -5.9793,3.74767 -7.852599,2.56175 -2.746808,-1.73891 -3.491522,-1.45432 -4.47961,1.71187 -0.497795,1.59511 -1.466833,3.26147 -2.153417,3.70302 -1.720793,1.10665 1.333168,6.59368 3.294293,5.91883 0.838178,-0.28843 3.119076,-0.0741 5.068663,0.47619 3.111818,0.87841 3.544704,0.64704 3.544704,-1.89452 0,-4.05618 9.132672,-9.24756 12.807993,-7.28058 1.41009,0.75465 2.28258,2.10495 1.93887,3.00065 -0.34371,0.89571 0.15884,2.70043 1.11678,4.01049 1.46434,2.0026 2.19938,2.137 4.615518,0.84392 2.48038,-1.32746 3.74853,-0.97671 9.2632,2.56205 l 6.3894,4.10006 -6.12795,3.88623 c -5.26016,3.33589 -6.63374,3.69531 -9.69961,2.53807 -3.061338,-1.15552 -3.773128,-0.97172 -4.981608,1.28635 -1.02822,1.92124 -1.01828,2.87656 0.0367,3.52858 0.91933,0.56818 0.32987,1.49177 -1.61709,2.53376 -2.62432,1.40449 -3.829548,1.24899 -8.402985,-1.08421 -3.712704,-1.89408 -5.339241,-3.55262 -5.339241,-5.4443 0,-2.41462 -0.533309,-2.63387 -4.74442,-1.95051 -7.155342,1.16116 -8.674522,3.26663 -6.0921,8.44322 1.71918,3.44618 2.656117,4.08203 5.108088,3.46663 1.651508,-0.4145 4.50785,-0.0679 6.347426,0.7703 l 3.344685,1.52394 -6.006069,3.73827 c -5.741783,3.57378 -7.848476,3.8133 -13.720559,1.55997 -1.106993,-0.42479 -2.390125,0.54353 -3.265199,2.46411 -1.196228,2.62544 -1.070772,3.31524 0.737144,4.05308 1.900773,0.77574 1.80873,1.06135 -0.721497,2.23881 -3.196312,1.48742 -3.39893,2.03919 -1.721581,4.68821 0.685654,1.08285 2.047927,1.45033 3.421912,0.92308 1.255516,-0.48179 2.619152,-0.35447 3.030301,0.28294 0.411151,0.6374 2.03332,1.56006 3.604819,2.05035 2.391831,0.74625 2.986793,0.30212 3.652364,-2.72648 0.437299,-1.98985 0.96894,-4.21394 1.181424,-4.94238 0.212483,-0.72846 3.443756,-2.98853 7.180606,-5.02238 l 6.794273,-3.6979 -0.860715,4.37787 c -0.473393,2.40783 -1.779307,5.06306 -2.902032,5.90052 -1.85112,1.38077 -1.823608,1.89119 0.295279,5.47817 2.902267,4.91316 6.340067,5.04988 10.329857,0.41084 3.57057,-4.15161 3.72001,-4.94593 1.11828,-5.94431 -1.36165,-0.52252 -1.93347,-2.64657 -1.93347,-7.18196 0,-5.3179 0.4946,-6.70472 2.8386,-7.95919 2.11477,-1.13179 2.963868,-1.14336 3.329868,-0.0453 0.2702,0.8106 1.89304,1.47382 3.60631,1.47382 2.55259,0 3.11505,-0.65185 3.11505,-3.6101 0,-3.49286 1.80289,-4.90167 13.21207,-10.32409 0.53171,-0.2527 0.96674,2.99839 0.96674,7.22464 0,6.41361 -0.45453,7.98589 -2.74906,9.5094 -2.07533,1.37797 -2.52064,2.54499 -1.81702,4.76188 0.57524,1.81242 1.62761,2.66966 2.74906,2.23932 1.29072,-0.4953 1.8124,0.31775 1.80106,2.80698 -0.0207,4.55243 -7.45236,9.74397 -12.23139,8.5445 -2.41821,-0.60693 -3.37917,-0.21977 -3.94702,1.5902 -0.41283,1.31584 -1.22056,3.29118 -1.79497,4.38965 -1.61975,3.09755 1.35173,5.82514 6.71074,6.15995 4.31129,0.26935 4.83369,-0.0282 4.83369,-2.75395 0,-1.99193 1.09921,-3.55677 3.15708,-4.4944 3.10934,-1.41671 3.16295,-1.33699 3.54471,5.27128 0.35019,6.062 0.017,7.03606 -3.45148,10.08991 -3.39583,2.98989 -3.62946,3.63274 -2.02351,5.56778 0.99856,1.2032 2.87116,1.91159 4.16133,1.5742 1.78844,-0.46768 2.34576,0.12352 2.34576,2.48836 0,2.24245 0.71421,3.10178 2.57797,3.10178 1.86376,0 2.57797,-0.85933 2.57797,-3.10178 z"
     id="path3001"
     inkscape:connector-curvature="0"
     inkscape:export-filename="/Users/benjamin/Pictures/Logos/Spec_Hollow.png"
     inkscape:export-xdpi="120.3203"
     inkscape:export-ydpi="120.3203" />
  <path
     sodipodi:type="arc"
     style="fill:#808080;fill-opacity:1;stroke:none"
     id="path2993"
     sodipodi:cx="186.25806"
     sodipodi:cy="101.18517"
     sodipodi:rx="152.74449"
     sodipodi:ry="152.74449"
     d="m 157.11304,251.12332 a 152.74449,152.74449 0 1 1 29.14502,2.80634"
     sodipodi:start="1.7627825"
     sodipodi:end="7.8539816"
     sodipodi:open="true"
     transform="matrix(-0.63298001,0,0,-0.63298001,-48.381198,-24.909727)" />
  <path
     d="m -275.12136,322.09043 c 0.34823,-0.15748 0.69288,-0.32465 1.03777,-0.49397 0.34489,0.16932 0.68954,0.33649 1.03777,0.49397 l -1.03777,0 -1.03777,0 z m 1.03776,-0.49397 c -3.89251,-1.91095 -7.54913,-4.7161 -10.23931,-11.72045 -6.98513,-18.18711 6.42154,-28.4552 -0.0692,-45.35501 -6.507,-16.94218 -20.86162,-9.20553 -27.84679,-27.39264 -6.98513,-18.1871 6.40323,-28.41284 -0.10377,-45.35501 -6.49071,-16.89978 -20.86163,-9.20551 -27.84677,-27.39263 -6.98513,-18.18712 6.40321,-28.41285 -0.10378,-45.35501 -6.96585,-18.13687 -20.86165,-9.20551 -27.84679,-27.392639 -6.98514,-18.187069 6.40322,-28.412881 -0.10377,-45.355014 -6.04831,-15.747877 -20.82706,-9.205533 -27.8122,-27.39263 0,0 243.94478,0 243.94478,0 -6.98514,18.187112 -21.76389,11.644738 -27.81219,27.39263 -6.50699,16.942148 6.88136,27.16793 -0.10372,45.355014 -6.98514,18.187149 -20.88094,9.255769 -27.84679,27.392639 -6.50698,16.94216 6.88134,27.16789 -0.10372,45.35501 -6.98515,18.18712 -21.35606,10.49285 -27.84679,27.39263 -6.507,16.9422 6.88135,27.16788 -0.10372,45.35501 -6.98518,18.18712 -21.33979,10.45046 -27.84679,27.39264 -6.49072,16.89981 6.91596,27.1679 -0.0692,45.35501 -2.69017,7.00435 -6.34681,9.8095 -10.23931,11.72045 l -1.7e-4,0 z"
     id="Spets"
     style="fill:#003d8f"
     inkscape:connector-curvature="0" />
  <g
     transform="matrix(-0.5,0.8660254,-0.8660254,-0.5,-322.30117,174.52209)"
     id="Snowflake"
     style="fill:#eeeeee">
    <g
       id="g2940">
      <g
         id="g2934">
        <path
           d="m -302.55399,-3.0361405 -0.4769,-23.3950715 5.51611,-3.657424 -2.52995,-4.70894 -3.15206,2.057294 -0.16589,-8.54924 10.78337,-6.903394 4.72809,2.514485 2.15666,-4.937535 -1.70044,-0.868636 3.0691,-1.965869 -2.48846,-4.754664 -3.35943,2.148746 -0.0415,-2.011586 -4.97695,0.09143 0.083,5.074686 -8.37786,5.348989 -0.33179,-16.321272 6.92625,-5.897613 -3.02764,-4.3432 -4.06451,3.428846 -0.16589,-7.72633 -2.48847,0.06858 0,75.3077185 4.08511,0 z"
           id="Snowflake-1"
           inkscape:connector-curvature="0" />
        <use
           transform="matrix(-1,0,0,1,-612.36746,0)"
           id="use2932"
           x="0"
           y="0"
           width="251"
           height="304.20001"
           xlink:href="#Snowflake-1" />
      </g>
      <use
         transform="matrix(1,0,0,-1,0,-6.7676586)"
         id="use2938"
         x="0"
         y="0"
         width="251"
         height="304.20001"
         xlink:href="#g2934" />
    </g>
    <use
       transform="matrix(0.5,-0.8660254,0.8660254,0.5,-150.16138,-266.8548)"
       id="use2946"
       x="0"
       y="0"
       width="251"
       height="304.20001"
       xlink:href="#g2940" />
    <use
       transform="matrix(-0.5,-0.8660254,0.8660254,-0.5,-456.34511,-270.23863)"
       id="use2948"
       x="0"
       y="0"
       width="251"
       height="304.20001"
       xlink:href="#g2940" />
  </g>
</svg>
